<svg width="56" height="21" viewBox="0 0 56 21" fill="none" xmlns="http://www.w3.org/2000/svg">
<g id="reCAPTCHA">
<path d="M4.7373 3.52734C4.60059 3.50456 4.45247 3.49316 4.29297 3.49316C3.70052 3.49316 3.2985 3.74544 3.08691 4.25V8H2.18359V2.7168H3.0625L3.07715 3.32715C3.37337 2.85514 3.79329 2.61914 4.33691 2.61914C4.5127 2.61914 4.64616 2.64193 4.7373 2.6875V3.52734Z" fill="#555555"/>
<path d="M7.66699 8.09766C6.95085 8.09766 6.36816 7.86328 5.91895 7.39453C5.46973 6.92253 5.24512 6.29264 5.24512 5.50488V5.33887C5.24512 4.81478 5.3444 4.34766 5.54297 3.9375C5.74479 3.52409 6.02474 3.20182 6.38281 2.9707C6.74414 2.73633 7.13477 2.61914 7.55469 2.61914C8.24154 2.61914 8.77539 2.84538 9.15625 3.29785C9.53711 3.75033 9.72754 4.39811 9.72754 5.24121V5.61719H6.14844C6.16146 6.13802 6.31283 6.55957 6.60254 6.88184C6.89551 7.20085 7.2666 7.36035 7.71582 7.36035C8.03483 7.36035 8.30501 7.29525 8.52637 7.16504C8.74772 7.03483 8.94141 6.8623 9.10742 6.64746L9.65918 7.07715C9.21647 7.75749 8.55241 8.09766 7.66699 8.09766ZM7.55469 3.36133C7.1901 3.36133 6.88411 3.49479 6.63672 3.76172C6.38932 4.02539 6.23633 4.39648 6.17773 4.875H8.82422V4.80664C8.79818 4.34766 8.67448 3.99284 8.45312 3.74219C8.23177 3.48828 7.93229 3.36133 7.55469 3.36133Z" fill="#555555"/>
<path d="M16.1484 5.74414C16.0605 6.49609 15.7822 7.07715 15.3135 7.4873C14.848 7.89421 14.2279 8.09766 13.4531 8.09766C12.6133 8.09766 11.9395 7.79655 11.4316 7.19434C10.9271 6.59212 10.6748 5.78646 10.6748 4.77734V4.09375C10.6748 3.43294 10.792 2.85189 11.0264 2.35059C11.264 1.84928 11.5993 1.46517 12.0322 1.19824C12.4652 0.92806 12.9665 0.792969 13.5361 0.792969C14.2913 0.792969 14.8968 1.00456 15.3525 1.42773C15.8083 1.84766 16.0736 2.43034 16.1484 3.17578H15.2061C15.1247 2.60938 14.9473 2.19922 14.6738 1.94531C14.4036 1.69141 14.0244 1.56445 13.5361 1.56445C12.9372 1.56445 12.4668 1.78581 12.125 2.22852C11.7865 2.67122 11.6172 3.30111 11.6172 4.11816V4.80664C11.6172 5.57812 11.7783 6.19173 12.1006 6.64746C12.4229 7.10319 12.8737 7.33105 13.4531 7.33105C13.974 7.33105 14.3727 7.21387 14.6494 6.97949C14.9294 6.74186 15.1149 6.33008 15.2061 5.74414H16.1484Z" fill="#555555"/>
<path d="M21.3584 6.14453H18.3799L17.7109 8H16.7441L19.459 0.890625H20.2793L22.999 8H22.0371L21.3584 6.14453ZM18.6631 5.37305H21.0801L19.8691 2.04785L18.6631 5.37305Z" fill="#555555"/>
<path d="M24.8936 5.2168V8H23.9561V0.890625H26.5781C27.3561 0.890625 27.9648 1.08919 28.4043 1.48633C28.847 1.88346 29.0684 2.40918 29.0684 3.06348C29.0684 3.75358 28.8519 4.28581 28.4189 4.66016C27.9893 5.03125 27.3724 5.2168 26.5684 5.2168H24.8936ZM24.8936 4.4502H26.5781C27.0794 4.4502 27.4635 4.33301 27.7305 4.09863C27.9974 3.861 28.1309 3.51921 28.1309 3.07324C28.1309 2.65007 27.9974 2.31152 27.7305 2.05762C27.4635 1.80371 27.0973 1.67188 26.6318 1.66211H24.8936V4.4502Z" fill="#555555"/>
<path d="M35.1768 1.66211H32.8916V8H31.959V1.66211H29.6787V0.890625H35.1768V1.66211Z" fill="#555555"/>
<path d="M41.3242 5.74414C41.2363 6.49609 40.958 7.07715 40.4893 7.4873C40.0238 7.89421 39.4036 8.09766 38.6289 8.09766C37.7891 8.09766 37.1152 7.79655 36.6074 7.19434C36.1029 6.59212 35.8506 5.78646 35.8506 4.77734V4.09375C35.8506 3.43294 35.9678 2.85189 36.2021 2.35059C36.4398 1.84928 36.7751 1.46517 37.208 1.19824C37.6409 0.92806 38.1423 0.792969 38.7119 0.792969C39.4671 0.792969 40.0726 1.00456 40.5283 1.42773C40.9841 1.84766 41.2493 2.43034 41.3242 3.17578H40.3818C40.3005 2.60938 40.123 2.19922 39.8496 1.94531C39.5794 1.69141 39.2002 1.56445 38.7119 1.56445C38.113 1.56445 37.6426 1.78581 37.3008 2.22852C36.9622 2.67122 36.793 3.30111 36.793 4.11816V4.80664C36.793 5.57812 36.9541 6.19173 37.2764 6.64746C37.5986 7.10319 38.0495 7.33105 38.6289 7.33105C39.1497 7.33105 39.5485 7.21387 39.8252 6.97949C40.1051 6.74186 40.2907 6.33008 40.3818 5.74414H41.3242Z" fill="#555555"/>
<path d="M48.0723 8H47.1299V4.71387H43.5459V8H42.6084V0.890625H43.5459V3.94727H47.1299V0.890625H48.0723V8Z" fill="#555555"/>
<path d="M53.751 6.14453H50.7725L50.1035 8H49.1367L51.8516 0.890625H52.6719L55.3916 8H54.4297L53.751 6.14453ZM51.0557 5.37305H53.4727L52.2617 2.04785L51.0557 5.37305Z" fill="#555555"/>
<path d="M1.25 16.5391V18.7656H0.5V13.0781H2.59766C3.22005 13.0781 3.70703 13.237 4.05859 13.5547C4.41276 13.8724 4.58984 14.293 4.58984 14.8164C4.58984 15.3685 4.41667 15.7943 4.07031 16.0938C3.72656 16.3906 3.23307 16.5391 2.58984 16.5391H1.25ZM1.25 15.9258H2.59766C2.9987 15.9258 3.30599 15.832 3.51953 15.6445C3.73307 15.4544 3.83984 15.181 3.83984 14.8242C3.83984 14.4857 3.73307 14.2148 3.51953 14.0117C3.30599 13.8086 3.01302 13.7031 2.64062 13.6953H1.25V15.9258Z" fill="#555555"/>
<path d="M7.47656 15.1875C7.36719 15.1693 7.2487 15.1602 7.12109 15.1602C6.64714 15.1602 6.32552 15.362 6.15625 15.7656V18.7656H5.43359V14.5391H6.13672L6.14844 15.0273C6.38542 14.6497 6.72135 14.4609 7.15625 14.4609C7.29688 14.4609 7.40365 14.4792 7.47656 14.5156V15.1875Z" fill="#555555"/>
<path d="M8.92969 18.7656H8.20703V14.5391H8.92969V18.7656ZM8.14844 13.418C8.14844 13.3008 8.18359 13.2018 8.25391 13.1211C8.32682 13.0404 8.43359 13 8.57422 13C8.71484 13 8.82161 13.0404 8.89453 13.1211C8.96745 13.2018 9.00391 13.3008 9.00391 13.418C9.00391 13.5352 8.96745 13.6328 8.89453 13.7109C8.82161 13.7891 8.71484 13.8281 8.57422 13.8281C8.43359 13.8281 8.32682 13.7891 8.25391 13.7109C8.18359 13.6328 8.14844 13.5352 8.14844 13.418Z" fill="#555555"/>
<path d="M11.4844 17.7852L12.5312 14.5391H13.2695L11.7539 18.7656H11.2031L9.67188 14.5391H10.4102L11.4844 17.7852Z" fill="#555555"/>
<path d="M16.5117 18.7656C16.4701 18.6823 16.4362 18.5339 16.4102 18.3203C16.0742 18.6693 15.6732 18.8438 15.207 18.8438C14.7904 18.8438 14.4479 18.7266 14.1797 18.4922C13.9141 18.2552 13.7812 17.9557 13.7812 17.5938C13.7812 17.1536 13.9479 16.8125 14.2812 16.5703C14.6172 16.3255 15.0885 16.2031 15.6953 16.2031H16.3984V15.8711C16.3984 15.6185 16.3229 15.418 16.1719 15.2695C16.0208 15.1185 15.7982 15.043 15.5039 15.043C15.2461 15.043 15.0299 15.1081 14.8555 15.2383C14.681 15.3685 14.5938 15.526 14.5938 15.7109H13.8672C13.8672 15.5 13.9414 15.2969 14.0898 15.1016C14.2409 14.9036 14.444 14.7474 14.6992 14.6328C14.957 14.5182 15.2396 14.4609 15.5469 14.4609C16.0339 14.4609 16.4154 14.5833 16.6914 14.8281C16.9674 15.0703 17.1107 15.4049 17.1211 15.832V17.7773C17.1211 18.1654 17.1706 18.474 17.2695 18.7031V18.7656H16.5117ZM15.3125 18.2148C15.5391 18.2148 15.7539 18.1562 15.957 18.0391C16.1602 17.9219 16.3073 17.7695 16.3984 17.582V16.7148H15.832C14.9466 16.7148 14.5039 16.974 14.5039 17.4922C14.5039 17.7188 14.5794 17.8958 14.7305 18.0234C14.8815 18.151 15.0755 18.2148 15.3125 18.2148Z" fill="#555555"/>
<path d="M19.9492 18.2539C20.207 18.2539 20.4323 18.1758 20.625 18.0195C20.8177 17.8633 20.9245 17.668 20.9453 17.4336H21.6289C21.6159 17.6758 21.5326 17.9062 21.3789 18.125C21.2253 18.3438 21.0195 18.5182 20.7617 18.6484C20.5065 18.7786 20.2357 18.8438 19.9492 18.8438C19.3737 18.8438 18.9154 18.6523 18.5742 18.2695C18.2357 17.8841 18.0664 17.3581 18.0664 16.6914V16.5703C18.0664 16.1589 18.1419 15.793 18.293 15.4727C18.444 15.1523 18.6602 14.9036 18.9414 14.7266C19.2253 14.5495 19.5599 14.4609 19.9453 14.4609C20.4193 14.4609 20.8125 14.6029 21.125 14.8867C21.4401 15.1706 21.6081 15.5391 21.6289 15.9922H20.9453C20.9245 15.7188 20.8203 15.4948 20.6328 15.3203C20.4479 15.1432 20.2188 15.0547 19.9453 15.0547C19.5781 15.0547 19.293 15.1875 19.0898 15.4531C18.8893 15.7161 18.7891 16.0977 18.7891 16.5977V16.7344C18.7891 17.2214 18.8893 17.5964 19.0898 17.8594C19.2904 18.1224 19.5768 18.2539 19.9492 18.2539Z" fill="#555555"/>
<path d="M23.8242 17.707L24.8086 14.5391H25.582L23.8828 19.418C23.6198 20.1211 23.2018 20.4727 22.6289 20.4727L22.4922 20.4609L22.2227 20.4102V19.8242L22.418 19.8398C22.6628 19.8398 22.8529 19.7904 22.9883 19.6914C23.1263 19.5924 23.2396 19.4115 23.3281 19.1484L23.4883 18.7188L21.9805 14.5391H22.7695L23.8242 17.707Z" fill="#555555"/>
<path d="M38.4297 13.6953H36.6016V18.7656H35.8555V13.6953H34.0312V13.0781H38.4297V13.6953Z" fill="#555555"/>
<path d="M40.5234 18.8438C39.9505 18.8438 39.4844 18.6562 39.125 18.2812C38.7656 17.9036 38.5859 17.3997 38.5859 16.7695V16.6367C38.5859 16.2174 38.6654 15.8438 38.8242 15.5156C38.9857 15.1849 39.2096 14.9271 39.4961 14.7422C39.7852 14.5547 40.0977 14.4609 40.4336 14.4609C40.9831 14.4609 41.4102 14.6419 41.7148 15.0039C42.0195 15.3659 42.1719 15.8841 42.1719 16.5586V16.8594H39.3086C39.319 17.276 39.4401 17.6133 39.6719 17.8711C39.9062 18.1263 40.2031 18.2539 40.5625 18.2539C40.8177 18.2539 41.0339 18.2018 41.2109 18.0977C41.388 17.9935 41.543 17.8555 41.6758 17.6836L42.1172 18.0273C41.763 18.5716 41.2318 18.8438 40.5234 18.8438ZM40.4336 15.0547C40.1419 15.0547 39.8971 15.1615 39.6992 15.375C39.5013 15.5859 39.3789 15.8828 39.332 16.2656H41.4492V16.2109C41.4284 15.8438 41.3294 15.5599 41.1523 15.3594C40.9753 15.1562 40.7357 15.0547 40.4336 15.0547Z" fill="#555555"/>
<path d="M45.0547 15.1875C44.9453 15.1693 44.8268 15.1602 44.6992 15.1602C44.2253 15.1602 43.9036 15.362 43.7344 15.7656V18.7656H43.0117V14.5391H43.7148L43.7266 15.0273C43.9635 14.6497 44.2995 14.4609 44.7344 14.4609C44.875 14.4609 44.9818 14.4792 45.0547 14.5156V15.1875Z" fill="#555555"/>
<path d="M46.4023 14.5391L46.4219 15.0078C46.7318 14.6432 47.1497 14.4609 47.6758 14.4609C48.2669 14.4609 48.6693 14.6875 48.8828 15.1406C49.0234 14.9375 49.2057 14.7734 49.4297 14.6484C49.6562 14.5234 49.9232 14.4609 50.2305 14.4609C51.1576 14.4609 51.6289 14.9518 51.6445 15.9336V18.7656H50.9219V15.9766C50.9219 15.6745 50.8529 15.4492 50.7148 15.3008C50.5768 15.1497 50.3451 15.0742 50.0195 15.0742C49.7513 15.0742 49.5286 15.1549 49.3516 15.3164C49.1745 15.4753 49.0716 15.6901 49.043 15.9609V18.7656H48.3164V15.9961C48.3164 15.3815 48.0156 15.0742 47.4141 15.0742C46.9401 15.0742 46.6159 15.276 46.4414 15.6797V18.7656H45.7188V14.5391H46.4023Z" fill="#555555"/>
<path d="M55.1992 17.6445C55.1992 17.4492 55.125 17.2982 54.9766 17.1914C54.8307 17.082 54.5742 16.9883 54.207 16.9102C53.8424 16.832 53.5521 16.7383 53.3359 16.6289C53.1224 16.5195 52.9635 16.3893 52.8594 16.2383C52.7578 16.0872 52.707 15.9076 52.707 15.6992C52.707 15.3529 52.8529 15.0599 53.1445 14.8203C53.4388 14.5807 53.8138 14.4609 54.2695 14.4609C54.7487 14.4609 55.1367 14.5846 55.4336 14.832C55.7331 15.0794 55.8828 15.3958 55.8828 15.7812H55.1562C55.1562 15.5833 55.0716 15.4128 54.9023 15.2695C54.7357 15.1263 54.5247 15.0547 54.2695 15.0547C54.0065 15.0547 53.8008 15.112 53.6523 15.2266C53.5039 15.3411 53.4297 15.4909 53.4297 15.6758C53.4297 15.8503 53.4987 15.9818 53.6367 16.0703C53.7747 16.1589 54.0234 16.2435 54.3828 16.3242C54.7448 16.4049 55.0378 16.5013 55.2617 16.6133C55.4857 16.7253 55.651 16.8607 55.7578 17.0195C55.8672 17.1758 55.9219 17.3672 55.9219 17.5938C55.9219 17.9714 55.7708 18.2747 55.4688 18.5039C55.1667 18.7305 54.7747 18.8438 54.293 18.8438C53.9544 18.8438 53.6549 18.7839 53.3945 18.6641C53.1341 18.5443 52.9297 18.3776 52.7812 18.1641C52.6354 17.9479 52.5625 17.7148 52.5625 17.4648H53.2852C53.2982 17.707 53.3945 17.8997 53.5742 18.043C53.7565 18.1836 53.9961 18.2539 54.293 18.2539C54.5664 18.2539 54.7852 18.1992 54.9492 18.0898C55.1159 17.9779 55.1992 17.8294 55.1992 17.6445Z" fill="#555555"/>
</g>
</svg>
