<svg width="131" height="28" viewBox="0 0 131 28" fill="none" xmlns="http://www.w3.org/2000/svg">
<g id="Robot">
<g id="I&#226;&#128;&#153;m not a robot">
<path d="M43.0635 19H41.751V9.04688H43.0635V19Z" fill="black"/>
<path d="M45.3604 11.8496L44.6426 11.3574C45.0664 10.765 45.2852 10.1406 45.2988 9.48438V8.5H46.5498V9.38867C46.5452 9.8444 46.4313 10.3001 46.208 10.7559C45.9893 11.207 45.7067 11.5716 45.3604 11.8496Z" fill="black"/>
<path d="M49.127 11.6035L49.1611 12.4238C49.7035 11.7858 50.4349 11.4668 51.3555 11.4668C52.39 11.4668 53.0941 11.8633 53.4678 12.6562C53.7139 12.3008 54.0329 12.0137 54.4248 11.7949C54.8213 11.5762 55.2884 11.4668 55.8262 11.4668C57.4486 11.4668 58.2734 12.3258 58.3008 14.0439V19H57.0361V14.1191C57.0361 13.5905 56.9154 13.1963 56.6738 12.9365C56.4323 12.6722 56.0267 12.54 55.457 12.54C54.9876 12.54 54.598 12.6813 54.2881 12.9639C53.9782 13.2419 53.7982 13.6178 53.748 14.0918V19H52.4766V14.1533C52.4766 13.0778 51.9502 12.54 50.8975 12.54C50.068 12.54 49.5007 12.8932 49.1953 13.5996V19H47.9307V11.6035H49.127Z" fill="black"/>
<path d="M64.8838 11.6035L64.9248 12.5332C65.4899 11.8223 66.2282 11.4668 67.1396 11.4668C68.7028 11.4668 69.4912 12.3486 69.5049 14.1123V19H68.2402V14.1055C68.2357 13.5723 68.1126 13.1781 67.8711 12.9229C67.6341 12.6676 67.2627 12.54 66.7568 12.54C66.3467 12.54 65.9867 12.6494 65.6768 12.8682C65.3669 13.0869 65.1253 13.374 64.9521 13.7295V19H63.6875V11.6035H64.8838Z" fill="black"/>
<path d="M71.0771 15.2334C71.0771 14.5088 71.2184 13.8571 71.501 13.2783C71.7881 12.6995 72.1846 12.2529 72.6904 11.9385C73.2008 11.624 73.7819 11.4668 74.4336 11.4668C75.4408 11.4668 76.2542 11.8154 76.874 12.5127C77.4984 13.21 77.8105 14.1374 77.8105 15.2949V15.3838C77.8105 16.1038 77.6716 16.751 77.3936 17.3252C77.1201 17.8949 76.7259 18.3392 76.2109 18.6582C75.7005 18.9772 75.1126 19.1367 74.4473 19.1367C73.4447 19.1367 72.6312 18.7881 72.0068 18.0908C71.387 17.3936 71.0771 16.4707 71.0771 15.3223V15.2334ZM72.3486 15.3838C72.3486 16.2041 72.5378 16.8626 72.916 17.3594C73.2988 17.8561 73.8092 18.1045 74.4473 18.1045C75.0898 18.1045 75.6003 17.8538 75.9785 17.3525C76.3568 16.8467 76.5459 16.1403 76.5459 15.2334C76.5459 14.4222 76.3522 13.766 75.9648 13.2646C75.582 12.7588 75.0716 12.5059 74.4336 12.5059C73.8092 12.5059 73.3057 12.7542 72.9229 13.251C72.54 13.7477 72.3486 14.4587 72.3486 15.3838Z" fill="black"/>
<path d="M81.1123 9.8125V11.6035H82.4932V12.5811H81.1123V17.168C81.1123 17.4642 81.1738 17.6875 81.2969 17.8379C81.4199 17.9837 81.6296 18.0566 81.9258 18.0566C82.0716 18.0566 82.2721 18.0293 82.5273 17.9746V19C82.1947 19.0911 81.8711 19.1367 81.5566 19.1367C80.9915 19.1367 80.5654 18.9658 80.2783 18.624C79.9912 18.2822 79.8477 17.7969 79.8477 17.168V12.5811H78.501V11.6035H79.8477V9.8125H81.1123Z" fill="black"/>
<path d="M92.0156 19C91.9427 18.8542 91.8835 18.5944 91.8379 18.2207C91.25 18.8314 90.5482 19.1367 89.7324 19.1367C89.0033 19.1367 88.404 18.9316 87.9346 18.5215C87.4697 18.1068 87.2373 17.5827 87.2373 16.9492C87.2373 16.179 87.529 15.582 88.1123 15.1582C88.7002 14.7298 89.5251 14.5156 90.5869 14.5156H91.8174V13.9346C91.8174 13.4925 91.6852 13.1416 91.4209 12.8818C91.1566 12.6175 90.7669 12.4854 90.252 12.4854C89.8008 12.4854 89.4225 12.5993 89.1172 12.8271C88.8118 13.055 88.6592 13.3307 88.6592 13.6543H87.3877C87.3877 13.2852 87.5176 12.9297 87.7773 12.5879C88.0417 12.2415 88.3971 11.9681 88.8438 11.7676C89.2949 11.5671 89.7894 11.4668 90.3271 11.4668C91.1794 11.4668 91.847 11.681 92.3301 12.1094C92.8132 12.5332 93.0638 13.1188 93.082 13.8662V17.2705C93.082 17.9495 93.1686 18.4896 93.3418 18.8906V19H92.0156ZM89.917 18.0361C90.3135 18.0361 90.6895 17.9336 91.0449 17.7285C91.4004 17.5234 91.6579 17.2568 91.8174 16.9287V15.4111H90.8262C89.2767 15.4111 88.502 15.8646 88.502 16.7715C88.502 17.168 88.6341 17.4779 88.8984 17.7012C89.1628 17.9245 89.5023 18.0361 89.917 18.0361Z" fill="black"/>
<path d="M102.112 12.7383C101.921 12.7064 101.714 12.6904 101.49 12.6904C100.661 12.6904 100.098 13.0436 99.8018 13.75V19H98.5371V11.6035H99.7676L99.7881 12.458C100.203 11.7972 100.791 11.4668 101.552 11.4668C101.798 11.4668 101.985 11.4987 102.112 11.5625V12.7383Z" fill="black"/>
<path d="M102.81 15.2334C102.81 14.5088 102.951 13.8571 103.233 13.2783C103.521 12.6995 103.917 12.2529 104.423 11.9385C104.933 11.624 105.514 11.4668 106.166 11.4668C107.173 11.4668 107.987 11.8154 108.606 12.5127C109.231 13.21 109.543 14.1374 109.543 15.2949V15.3838C109.543 16.1038 109.404 16.751 109.126 17.3252C108.853 17.8949 108.458 18.3392 107.943 18.6582C107.433 18.9772 106.845 19.1367 106.18 19.1367C105.177 19.1367 104.364 18.7881 103.739 18.0908C103.119 17.3936 102.81 16.4707 102.81 15.3223V15.2334ZM104.081 15.3838C104.081 16.2041 104.27 16.8626 104.648 17.3594C105.031 17.8561 105.542 18.1045 106.18 18.1045C106.822 18.1045 107.333 17.8538 107.711 17.3525C108.089 16.8467 108.278 16.1403 108.278 15.2334C108.278 14.4222 108.085 13.766 107.697 13.2646C107.314 12.7588 106.804 12.5059 106.166 12.5059C105.542 12.5059 105.038 12.7542 104.655 13.251C104.272 13.7477 104.081 14.4587 104.081 15.3838Z" fill="black"/>
<path d="M117.391 15.3838C117.391 16.514 117.131 17.4232 116.611 18.1113C116.092 18.7949 115.395 19.1367 114.52 19.1367C113.585 19.1367 112.863 18.8063 112.353 18.1455L112.291 19H111.129V8.5H112.394V12.417C112.904 11.7835 113.608 11.4668 114.506 11.4668C115.404 11.4668 116.108 11.8063 116.618 12.4854C117.133 13.1644 117.391 14.0941 117.391 15.2744V15.3838ZM116.126 15.2402C116.126 14.3789 115.96 13.7135 115.627 13.2441C115.294 12.7747 114.816 12.54 114.191 12.54C113.357 12.54 112.758 12.9274 112.394 13.7021V16.9014C112.781 17.6761 113.385 18.0635 114.205 18.0635C114.811 18.0635 115.283 17.8288 115.62 17.3594C115.957 16.89 116.126 16.1836 116.126 15.2402Z" fill="black"/>
<path d="M118.655 15.2334C118.655 14.5088 118.797 13.8571 119.079 13.2783C119.366 12.6995 119.763 12.2529 120.269 11.9385C120.779 11.624 121.36 11.4668 122.012 11.4668C123.019 11.4668 123.832 11.8154 124.452 12.5127C125.076 13.21 125.389 14.1374 125.389 15.2949V15.3838C125.389 16.1038 125.25 16.751 124.972 17.3252C124.698 17.8949 124.304 18.3392 123.789 18.6582C123.279 18.9772 122.691 19.1367 122.025 19.1367C121.023 19.1367 120.209 18.7881 119.585 18.0908C118.965 17.3936 118.655 16.4707 118.655 15.3223V15.2334ZM119.927 15.3838C119.927 16.2041 120.116 16.8626 120.494 17.3594C120.877 17.8561 121.387 18.1045 122.025 18.1045C122.668 18.1045 123.178 17.8538 123.557 17.3525C123.935 16.8467 124.124 16.1403 124.124 15.2334C124.124 14.4222 123.93 13.766 123.543 13.2646C123.16 12.7588 122.65 12.5059 122.012 12.5059C121.387 12.5059 120.884 12.7542 120.501 13.251C120.118 13.7477 119.927 14.4587 119.927 15.3838Z" fill="black"/>
<path d="M128.69 9.8125V11.6035H130.071V12.5811H128.69V17.168C128.69 17.4642 128.752 17.6875 128.875 17.8379C128.998 17.9837 129.208 18.0566 129.504 18.0566C129.65 18.0566 129.85 18.0293 130.105 17.9746V19C129.773 19.0911 129.449 19.1367 129.135 19.1367C128.57 19.1367 128.144 18.9658 127.856 18.624C127.569 18.2822 127.426 17.7969 127.426 17.168V12.5811H126.079V11.6035H127.426V9.8125H128.69Z" fill="black"/>
</g>
<path id="checkbox (Stroke)" fill-rule="evenodd" clip-rule="evenodd" d="M26.4259 2H2.57407C2.53316 2 2.5 2.03316 2.5 2.07407V25.9259C2.5 25.9668 2.53316 26 2.57407 26H26.4259C26.4668 26 26.5 25.9668 26.5 25.9259V2.07407C26.5 2.03316 26.4668 2 26.4259 2ZM26.4259 0H2.57407C1.42859 0 0.5 0.928595 0.5 2.07407V25.9259C0.5 27.0714 1.42859 28 2.57407 28H26.4259C27.5714 28 28.5 27.0714 28.5 25.9259V2.07407C28.5 0.928595 27.5714 0 26.4259 0Z" fill="#C1C1C1"/>
<rect id="Checkbox" x="2.5" y="2" width="24" height="24" fill="white"/>
</g>
</svg>
